<svg width="36" height="20" viewBox="0 0 36 20" fill="none" xmlns="http://www.w3.org/2000/svg">
<path d="M14.7973 3.2667C14.6361 3.10247 14.3723 3.1 14.2081 3.26119L11.0414 6.36918C10.9538 6.45515 10.9122 6.57033 10.917 6.68401C10.9129 6.79207 10.9511 6.89977 11.0272 6.98222L14.1352 10.3484C14.2913 10.5175 14.5549 10.528 14.724 10.3719C14.893 10.2158 14.9032 9.9518 14.7471 9.78272L12.2852 7.11624H20.5468C22.5594 7.11624 24.25 8.86768 24.25 11.0586C24.25 13.2496 22.5594 15.001 20.5468 15.001L11.3333 15.001C11.1032 15.001 10.9167 15.1875 10.9167 15.4176C10.9167 15.6478 11.1032 15.8343 11.3333 15.8343L20.5468 15.8343C23.063 15.8343 25.0834 13.6652 25.0834 11.0586C25.0834 8.45207 23.063 6.2829 20.5468 6.2829H12.319L14.7918 3.85593C14.956 3.69474 14.9585 3.43093 14.7973 3.2667Z" fill="#3B3B3B"/>
</svg>
