<svg width="36" height="20" viewBox="0 0 36 20" fill="none" xmlns="http://www.w3.org/2000/svg">
  <path fill-rule="evenodd" clip-rule="evenodd" d="M10.9631 4.36492C10.9631 4.1348 11.1497 3.94826 11.3798 3.94826H13.1584C16.3632 3.94826 18.9926 6.43961 18.9926 9.55076V12.681L20.6096 11.1331C20.7758 10.974 21.0396 10.9797 21.1987 11.146C21.3578 11.3122 21.3521 11.576 21.1858 11.7351L18.864 13.9576C18.7029 14.1118 18.4489 14.1118 18.2878 13.9576L15.966 11.7351C15.7997 11.576 15.794 11.3122 15.9531 11.146C16.1122 10.9797 16.376 10.974 16.5422 11.1331L18.1592 12.681V9.55076C18.1592 6.93379 15.9376 4.78159 13.1584 4.78159H11.3798C11.1497 4.78159 10.9631 4.59504 10.9631 4.36492ZM15.0933 13.0978C15.1232 13.326 14.9625 13.5352 14.7343 13.5651C13.6102 13.7123 12.6922 13.9233 12.0663 14.1668C11.7513 14.2894 11.534 14.4112 11.4027 14.5202C11.2958 14.609 11.2794 14.6597 11.2772 14.6699C11.2789 14.6774 11.2874 14.7017 11.3253 14.7448C11.3819 14.809 11.4843 14.8908 11.6502 14.9819C11.9817 15.1638 12.4889 15.3409 13.1513 15.4947C14.4694 15.8007 16.3113 15.9939 18.3604 15.9939C20.4094 15.9939 22.2513 15.8007 23.5694 15.4947C24.2318 15.3409 24.739 15.1638 25.0705 14.9819C25.2364 14.8908 25.3388 14.809 25.3954 14.7448C25.4339 14.7011 25.4421 14.6767 25.4436 14.6695C25.4418 14.6611 25.4308 14.6278 25.3712 14.5683C25.29 14.4873 25.1486 14.3897 24.9308 14.2855C24.4969 14.0782 23.8454 13.885 23.0173 13.7284C22.7911 13.6856 22.6425 13.4676 22.6853 13.2415C22.7281 13.0154 22.946 12.8668 23.1721 12.9095C24.0318 13.0722 24.7631 13.2818 25.2901 13.5337C25.5527 13.6591 25.7863 13.8052 25.9599 13.9786C26.1347 14.153 26.277 14.3854 26.277 14.6694C26.277 14.9194 26.1661 15.1307 26.0206 15.2958C25.8773 15.4583 25.6851 15.5952 25.4715 15.7124C25.0439 15.9471 24.4527 16.1451 23.7579 16.3064C22.3616 16.6306 20.4535 16.8272 18.3604 16.8272C16.2673 16.8272 14.3592 16.6306 12.9628 16.3064C12.268 16.1451 11.6769 15.9471 11.2493 15.7124C11.0356 15.5952 10.8434 15.4583 10.7002 15.2958C10.5546 15.1307 10.4437 14.9194 10.4437 14.6694C10.4437 14.3295 10.6454 14.0659 10.8704 13.8791C11.0991 13.6891 11.4091 13.5283 11.7641 13.3902C12.4781 13.1124 13.4699 12.8903 14.6261 12.7388C14.8542 12.7089 15.0634 12.8697 15.0933 13.0978ZM25.4439 14.6717L25.4436 14.6695L25.4439 14.6717ZM25.4436 14.6695L25.4439 14.6673L25.4436 14.6695ZM11.2769 14.6673L11.277 14.669L11.2769 14.6673Z" fill="#1A93DA" />
</svg>