<svg width="36" height="20" viewBox="0 0 36 20" fill="none" xmlns="http://www.w3.org/2000/svg">
<path fill-rule="evenodd" clip-rule="evenodd" d="M19.702 12.9812C19.7203 12.7518 19.9211 12.5807 20.1504 12.599C21.6145 12.7158 22.8895 12.9309 23.8096 13.2165C24.2667 13.3584 24.6606 13.525 24.949 13.7214C25.2218 13.9071 25.5 14.1899 25.5 14.5835C25.5 14.8344 25.3837 15.0428 25.2375 15.2016C25.0933 15.3582 24.9006 15.4892 24.6877 15.6011C24.2611 15.8252 23.6711 16.0145 22.977 16.1687C21.5822 16.4787 19.6755 16.6668 17.5833 16.6668C15.4912 16.6668 13.5845 16.4787 12.1896 16.1687C11.4956 16.0145 10.9056 15.8252 10.4789 15.6011C10.266 15.4892 10.0734 15.3582 9.9292 15.2016C9.78295 15.0428 9.66667 14.8344 9.66667 14.5835C9.66667 14.2377 9.88333 13.9773 10.1109 13.7992C10.345 13.616 10.6621 13.4611 11.0253 13.3282C11.7564 13.0607 12.7725 12.8476 13.9562 12.7046C14.1847 12.677 14.3922 12.8398 14.4198 13.0683C14.4474 13.2967 14.2846 13.5043 14.0562 13.5319C12.9032 13.6712 11.9578 13.8744 11.3117 14.1108C10.9863 14.2298 10.7608 14.3488 10.6245 14.4555C10.5381 14.5231 10.5106 14.5665 10.5025 14.5838C10.5073 14.5934 10.5182 14.6111 10.5422 14.6371C10.5978 14.6975 10.6999 14.7758 10.8665 14.8634C11.1989 15.038 11.7072 15.2079 12.3704 15.3552C13.6901 15.6485 15.5333 15.8335 17.5833 15.8335C19.6334 15.8335 21.4766 15.6485 22.7963 15.3552C23.4595 15.2079 23.9678 15.038 24.3002 14.8634C24.4668 14.7758 24.5688 14.6975 24.6245 14.6371C24.6482 14.6113 24.6592 14.5938 24.6641 14.584C24.6546 14.5639 24.6174 14.5037 24.4801 14.4103C24.2897 14.2807 23.9849 14.1435 23.5625 14.0124C22.7234 13.7519 21.5153 13.5438 20.0842 13.4297C19.8548 13.4114 19.6837 13.2106 19.702 12.9812ZM10.4994 14.5914L10.4992 14.5922L10.4994 14.5914ZM22.2745 3.45538C22.4372 3.29266 22.7011 3.29266 22.8638 3.45538L25.0849 5.67647L25.0863 5.67788C25.1434 5.73501 25.1805 5.8046 25.1975 5.87791C25.2108 5.9351 25.2118 5.99454 25.2007 6.05209C25.1854 6.13088 25.1473 6.20612 25.0863 6.26714L25.0849 6.26854L22.8638 8.48963C22.7011 8.65235 22.4372 8.65235 22.2745 8.48963C22.1118 8.32691 22.1118 8.06309 22.2745 7.90038L23.7857 6.38917H22.3525C19.7186 6.38917 17.5833 8.5244 17.5833 11.1583V13.6943C17.5833 13.9244 17.3968 14.111 17.1667 14.111C16.9366 14.111 16.75 13.9244 16.75 13.6943V11.1585C16.75 8.06428 19.2583 5.55584 22.3525 5.55584H23.7857L22.2745 4.04464C22.1118 3.88192 22.1118 3.6181 22.2745 3.45538Z" fill="#3B3B3B"/>
</svg>
